<svg width="54" height="31" viewBox="0 0 54 31" fill="none" xmlns="http://www.w3.org/2000/svg">
<g clip-path="url(#clip0_16_802)">
<path d="M39.2933 23.4C38.0667 23.4 37.0533 22.4133 37.0533 21.1866C37.0533 19.96 38.0667 19 39.2933 19C40.52 19 41.5333 19.96 41.5333 21.1866C41.5333 22.4133 40.52 23.4 39.2933 23.4ZM14.76 23.4C13.5333 23.4 12.52 22.4133 12.52 21.1866C12.52 19.96 13.5333 19 14.76 19C15.9867 19 16.9733 19.96 16.9733 21.1866C16.9733 22.4133 15.9867 23.4 14.76 23.4ZM40.0933 10.04L44.5467 2.35996C44.7867 1.90663 44.6267 1.34663 44.2 1.10663C43.7467 0.839961 43.1867 0.999961 43 1.45329L38.44 9.21329C34.8667 7.58663 31 6.73329 27 6.75996C22.92 6.75996 19 7.63996 15.6133 9.18663L11.1067 1.42663C10.8667 0.973294 10.3067 0.813295 9.85334 1.07996C9.40001 1.31996 9.26668 1.87996 9.50668 2.33329L13.9333 10.0133C6.33334 14.1733 1.10668 21.88 0.333344 31H53.6667C52.92 21.9066 47.72 14.2 40.0933 10.04Z" fill="white"/>
</g>
<defs>
<clipPath id="clip0_16_802">
<rect width="54" height="31" fill="white"/>
</clipPath>
</defs>
</svg>
