<svg width="64" height="64" viewBox="0 0 64 64" fill="none" xmlns="http://www.w3.org/2000/svg">
<path d="M21.3333 29.3333C19.8667 29.3333 18.6667 28.1333 18.6667 26.6667V21.3333C18.6667 19.8667 19.8667 18.6667 21.3333 18.6667C22.8 18.6667 24 19.8667 24 21.3333V26.6667C24 28.1333 22.8 29.3333 21.3333 29.3333ZM45.3333 26.6667V21.3333C45.3333 19.8667 44.1333 18.6667 42.6667 18.6667C41.2 18.6667 40 19.8667 40 21.3333V26.6667C40 28.1333 41.2 29.3333 42.6667 29.3333C44.1333 29.3333 45.3333 28.1333 45.3333 26.6667ZM58.6667 13.3333V53.3333C58.6667 56.2667 56.2667 58.6667 53.3333 58.6667H10.6667C7.73334 58.6667 5.33334 56.2667 5.33334 53.3333V13.3333C5.33334 10.4 7.73334 8 10.6667 8H53.3333C56.2667 8 58.6667 10.4 58.6667 13.3333ZM10.6667 53.3333H34.8267C34.56 51.6 34.3733 49.7067 34.2133 47.84C33.4933 47.8933 32.8 48 32 48C21.9733 48 16.8267 41.9467 16.6133 41.68C15.68 40.56 15.84 38.88 16.96 37.92C18.08 36.9867 19.76 37.1467 20.72 38.2667C20.88 38.48 24.6133 42.6667 32 42.6667C32.72 42.6667 33.3333 42.5867 33.9733 42.5333C33.8933 39.3333 33.9467 36.64 33.9733 35.36H29.1467C27.4133 35.36 26 33.8667 26 32C26.0533 31.3333 26.8533 20.8533 29.3333 13.3333H10.6667V53.3333ZM53.3333 53.3333V13.3333H33.6C31.3067 19.1733 30.32 28.6133 30.0533 31.36H34.88C36.5867 31.36 38 32.8533 38 34.6667C38 34.7733 37.8933 37.7333 37.9733 41.6C41.44 40.2933 43.2533 38.2667 43.28 38.24C44.2133 37.12 45.8933 36.9333 47.0133 37.8667C48.16 38.8 48.32 40.48 47.3867 41.6267C47.2267 41.8133 44.1333 45.4667 38.1867 47.1467C38.3467 49.3333 38.56 51.44 38.88 53.3333H53.3333Z" fill="white"/>
</svg>
