<svg width="64" height="64" viewBox="0 0 64 64" fill="none" xmlns="http://www.w3.org/2000/svg">
<path d="M5.57334 44.8H10V26.0266H5.57334M7.78668 23.5733C9.17334 23.5733 10.24 22.5066 10.24 21.1733C10.24 19.84 9.17334 18.7733 7.78668 18.7733C6.40001 18.7733 5.33334 19.84 5.33334 21.1733C5.33334 22.5066 6.40001 23.5733 7.78668 23.5733ZM24.6667 18.8266C17.2267 18.8266 12.5333 23.8933 12.5333 32C12.5333 40.16 17.2267 45.2266 24.6667 45.2266C32.1067 45.2266 36.8 40.16 36.8 32C36.8 23.8933 32.1067 18.8266 24.6667 18.8266ZM24.6667 22.6666C29.2267 22.6666 32.1333 26.32 32.1333 32C32.1333 37.7333 29.2267 41.3333 24.6667 41.3333C20.1067 41.3333 17.2267 37.7333 17.2267 32C17.2267 26.32 20.1067 22.6666 24.6667 22.6666ZM38.6667 37.6266C38.8533 42.32 42.6667 45.2266 48.5867 45.2266C54.7733 45.2266 58.6667 42.1866 58.6667 37.3333C58.6667 33.52 56.48 31.3866 51.28 30.1866L48.3467 29.52C45.2 28.7733 43.92 27.7866 43.92 26.08C43.92 24 45.8667 22.5333 48.7467 22.5333C51.68 22.5333 53.68 24 53.8933 26.3733H58.24C58.1333 21.8666 54.4267 18.8266 48.7733 18.8266C43.2267 18.8266 39.28 21.8933 39.28 26.4266C39.28 30.08 41.4933 32.3466 46.2133 33.4133L49.52 34.1866C52.7467 34.96 54.0533 36 54.0533 37.8666C54.0533 40 51.92 41.52 48.8267 41.52C45.7333 41.52 43.36 40 43.0933 37.6266H38.6667Z" fill="white"/>
</svg>
