<svg width="64" height="64" viewBox="0 0 64 64" fill="none" xmlns="http://www.w3.org/2000/svg">
<path d="M32 53.3334L41.2267 37.3334H41.2C42.1067 35.7334 42.6667 33.9467 42.6667 32C42.6667 28.8 41.2267 25.9467 38.9867 24H51.76C52.7733 26.48 53.3333 29.1734 53.3333 32C53.3333 37.658 51.0857 43.0842 47.085 47.085C43.0842 51.0858 37.658 53.3334 32 53.3334ZM10.6667 32C10.6667 28.1067 11.7067 24.48 13.52 21.3334L22.7733 37.3334H22.8C24.64 40.5067 28 42.6667 32 42.6667C33.2 42.6667 34.3467 42.4267 35.44 42.0534L29.04 53.0934C18.6667 51.6534 10.6667 42.7734 10.6667 32ZM40 32C40 34.1218 39.1572 36.1566 37.6569 37.6569C36.1566 39.1572 34.1217 40 32 40C29.8783 40 27.8434 39.1572 26.3432 37.6569C24.8429 36.1566 24 34.1218 24 32C24 29.8783 24.8429 27.8435 26.3432 26.3432C27.8434 24.8429 29.8783 24 32 24C34.1217 24 36.1566 24.8429 37.6569 26.3432C39.1572 27.8435 40 29.8783 40 32ZM32 10.6667C39.8933 10.6667 46.7733 14.96 50.4533 21.3334H32C26.8267 21.3334 22.5333 25.0134 21.5467 29.8934L15.2 18.88C19.0933 13.8934 25.1733 10.6667 32 10.6667ZM32 5.33337C28.4981 5.33337 25.0305 6.02313 21.7951 7.36325C18.5598 8.70338 15.6201 10.6676 13.1438 13.1439C8.14286 18.1448 5.33334 24.9276 5.33334 32C5.33334 39.0725 8.14286 45.8552 13.1438 50.8562C15.6201 53.3324 18.5598 55.2967 21.7951 56.6368C25.0305 57.977 28.4981 58.6667 32 58.6667C39.0724 58.6667 45.8552 55.8572 50.8562 50.8562C55.8572 45.8552 58.6667 39.0725 58.6667 32C58.6667 28.4981 57.9769 25.0305 56.6368 21.7951C55.2967 18.5598 53.3324 15.6201 50.8562 13.1439C48.38 10.6676 45.4403 8.70338 42.2049 7.36325C38.9696 6.02313 35.5019 5.33337 32 5.33337Z" fill="white"/>
</svg>
