<svg width="64" height="64" viewBox="0 0 64 64" fill="none" xmlns="http://www.w3.org/2000/svg">
<path d="M34.6667 8.00005L37.3333 8.16005C44.8 4.77339 51.28 4.37339 54.6667 7.78672C57.3333 10.4801 57.5467 15.1201 55.7867 20.5867C57.6267 24.0001 58.6667 27.8667 58.6667 32.0001L58.5333 34.6667H24.2133C25.2 40.7467 29.4933 45.3334 34.6667 45.3334C38.16 45.3334 41.2533 43.2267 43.2 40H57.3333C54 49.3334 45.12 56.0001 34.6667 56.0001C31.2533 56.0001 28 55.2801 25.0933 54.0001C17.3333 57.8134 10.3733 58.4001 6.85334 54.8267C2.66667 50.5601 4.48001 41.5201 10.6667 32.0001C13.1467 28.1067 16.3733 24.1601 20.1867 20.4001L22.3467 18.3467C19.2267 20.1867 15.2267 22.9867 11.1733 27.1201C13.4133 16.2134 23.0933 8.00005 34.6667 8.00005ZM34.6667 18.6667C29.8933 18.6667 25.84 22.5867 24.48 28.0001H44.8533C43.4933 22.5867 39.44 18.6667 34.6667 18.6667ZM53.4933 10.8267C51.7333 9.04005 48.5867 8.93339 44.64 10.1601C48.5867 12.0001 52 14.8267 54.4267 18.3734C55.28 15.0667 55.04 12.4001 53.4933 10.8267ZM10.3733 53.3334C12.5867 55.5734 17.0667 55.1734 22.5067 52.6934C17.5733 49.7867 13.7867 45.1734 11.92 39.68C8.72001 45.7334 8.00001 50.8534 10.3733 53.3334Z" fill="white"/>
</svg>
