<svg width="64" height="64" viewBox="0 0 64 64" fill="none" xmlns="http://www.w3.org/2000/svg">
<path d="M7.12 14.1333V15.76L5.22667 16.56V14.9333L7.12 14.1333ZM7.12 29.9733V31.6266L5.22667 32.4V30.8266L7.12 29.9733ZM7.12 46.0533V47.7066L5.22667 48.48V46.9066L7.12 46.0533ZM6.93334 19.44V20.9066L5.41334 21.6V20.16L6.93334 19.44ZM6.93334 24.7466V26.1866L5.41334 26.88V25.44L6.93334 24.7466ZM6.93334 35.4933V36.9066L5.41334 37.6V36.16L6.93334 35.4933ZM6.93334 40.88V42.32L5.41334 43.0133V41.6L6.93334 40.88ZM12 15.04V16.96L9.33334 17.9466V16L12 15.04ZM12 31.0933V32.9866L9.33334 33.9733V32.08L12 31.0933ZM12 47.2V49.0933L9.33334 50.16V48.2666L12 47.2ZM11.8133 20.5866V22.3466L9.70667 23.1466V21.3333L11.8133 20.5866ZM11.8133 25.9466V27.6533L9.73334 28.4533V26.6666L11.8133 25.9466ZM11.8133 36.64V38.3466L9.73334 39.1733V37.4133L11.8133 36.64ZM11.8133 42.0266V43.76L9.73334 44.5866V42.8266L11.8133 42.0266ZM16.8267 16.24V18.5066L13.4667 19.8133V17.5733L16.8267 16.24ZM16.8267 32.2933V34.56L13.4667 35.8666V33.6266L16.8267 32.2933ZM16.8267 48.2133V50.48L13.4667 51.8133V49.5466L16.8267 48.2133ZM16.6667 21.8133V23.84L13.84 24.9066V22.96L16.6667 21.8133ZM16.6667 27.1466V29.1466L13.84 30.2666V28.2666L16.6667 27.1466ZM16.6667 37.84V39.84L13.84 40.9866V38.9866L16.6667 37.84ZM16.6667 43.04V45.0666L13.84 46.1866V44.1866L16.6667 43.04ZM22.1067 16.1066V19.0933L17.92 20.7466V17.7866L22.1067 16.1066ZM22.1067 32.16V35.1733L17.92 36.8V33.8133L22.1067 32.16ZM22.1067 48.08V51.0666L17.92 52.72V49.76L22.1067 48.08ZM21.8667 21.68V24.4266L18.3733 25.84V23.0933L21.8667 21.68ZM21.8667 27.0133V29.7333L18.3733 31.1466V28.4L21.8667 27.0133ZM21.8667 37.7333V40.48L18.3733 41.8666V39.12L21.8667 37.7333ZM21.8667 42.9333V45.6533L18.3733 47.04V44.3466L21.8667 42.9333ZM27.5733 15.6V19.52L22.96 21.3333V17.4933L27.5733 15.6ZM27.5733 31.6533V35.5466L22.96 37.4133V33.4933L27.5733 31.6533ZM27.5733 47.5733V51.4666L22.96 53.3333V49.44L27.5733 47.5733ZM27.36 21.4666V24.7466L23.4133 26.32V23.04L27.36 21.4666ZM27.36 26.5866V29.8666L23.4133 31.4133V28.16L27.36 26.5866ZM27.36 37.4933V40.8266L23.4133 42.3466V39.0666L27.36 37.4933ZM27.36 42.6666V46L23.4133 47.5733V44.2666L27.36 42.6666ZM33.2 13.6533V18.9866L28.24 21.04V16C29.9467 15.0666 31.6 14.2666 33.2 13.6533ZM33.2 19.5466V24.16L28.24 26.24V21.6L33.2 19.5466ZM33.2 24.7466V29.44L28.24 31.52V26.8266L33.2 24.7466ZM33.2 30V34.6666L28.24 36.72V32L33.2 30ZM33.2 35.2266V40L28.24 42.08V37.3333L33.2 35.2266ZM33.2 40.56V45.2266L28.24 47.36V42.6666L33.2 40.56ZM33.2 45.7866V50.7733C31.2533 51.52 29.6 52.24 28.24 52.9066V47.8933L33.2 45.7866ZM58.7733 13.8133V51.28C55.6 49.1733 51.6533 48.1333 46.9067 48.1333C42.9867 48.1333 38.5867 48.9333 33.7333 50.56V45.4933C36.32 44.5066 39.1467 43.7866 42.24 43.36V31.1733C39.6267 31.4933 36.8 32.4 33.7333 33.8933V30.4C36.3733 29.1733 39.2267 28.3466 42.24 27.8933V16C39.52 16.48 36.6933 17.4133 33.7333 18.6666V13.4133C38.0533 11.5733 42.2933 10.6666 46.4267 10.6666C50.9067 10.6666 55.0133 11.7066 58.7733 13.8133ZM53.7333 17.0933C51.7067 16 49.3333 15.52 46.4533 15.52C46.1067 15.52 45.7867 15.5466 45.4667 15.5733V27.68L46.56 27.6533C48.9867 27.6533 51.3867 28 53.7333 28.8V17.0933ZM53.7333 32.2666C51.5733 31.3066 49.1467 30.8266 46.5067 30.8266C46.16 30.8266 45.8133 30.8533 45.4667 30.88V43.0933H46.56C49.2 43.0933 51.6 43.4133 53.7333 44.08V32.2666Z" fill="white"/>
</svg>
