<svg width="36" height="32" viewBox="0 0 36 32" fill="none" xmlns="http://www.w3.org/2000/svg">
<path fill-rule="evenodd" clip-rule="evenodd" d="M26.6694 30.8553C28.7662 31.7727 29.5526 29.8506 29.5526 29.8506L35.1006 1.97944C35.0569 0.100974 32.5232 1.23679 32.5232 1.23679L1.46301 13.4249C1.46301 13.4249 -0.0222803 13.9492 0.108775 14.8666C0.239831 15.7839 1.41933 16.2208 1.41933 16.2208L9.23897 18.8419C9.23897 18.8419 11.598 26.5742 12.0785 28.0595C12.5154 29.5011 12.9085 29.5448 12.9085 29.5448C13.3454 29.7195 13.7385 29.4137 13.7385 29.4137L18.806 24.8268L26.6694 30.8553ZM28.0236 6.91581C28.0236 6.91581 29.1157 6.26053 29.072 6.91581C29.072 6.91581 29.2468 7.00318 28.6789 7.61477C28.1547 8.13899 15.7918 19.235 14.1317 20.7203C14.0007 20.8077 13.9133 20.9387 13.9133 21.1135L13.4328 25.2199C13.3454 25.6567 12.7775 25.7004 12.6464 25.3073L10.5932 18.5797C10.5059 18.3176 10.5932 18.0118 10.8553 17.8371L28.0236 6.91581Z" fill="white"/>
</svg>
