<svg width="64" height="64" viewBox="0 0 64 64" fill="none" xmlns="http://www.w3.org/2000/svg">
<path d="M58.6667 32C58.6667 39.0725 55.8571 45.8552 50.8562 50.8562C45.8552 55.8572 39.0724 58.6667 32 58.6667C28.4981 58.6667 25.0305 57.977 21.7951 56.6368C18.5598 55.2967 15.62 53.3324 13.1438 50.8562C8.14284 45.8552 5.33333 39.0725 5.33333 32C5.33333 24.9276 8.14284 18.1448 13.1438 13.1439C18.1448 8.14289 24.9276 5.33337 32 5.33337C35.5019 5.33337 38.9695 6.02313 42.2049 7.36325C45.4402 8.70338 48.3799 10.6676 50.8562 13.1439C53.3324 15.6201 55.2967 18.5598 56.6368 21.7951C57.9769 25.0305 58.6667 28.4981 58.6667 32ZM38.24 20.64C39.7867 21.52 41.7333 20.9867 42.6667 19.4667C43.4933 17.9467 42.9867 16 41.44 15.0934C39.92 14.2134 37.9467 14.6667 37.0667 16.2667C36.1867 17.7867 36.72 19.76 38.24 20.64ZM31.68 41.3334C30.2667 41.3334 28.9333 41.04 27.76 40.48L25.52 44.48C27.3867 45.3334 29.4667 45.92 31.68 45.92C32.9867 45.92 34.2133 45.7334 35.4133 45.4134C35.6267 44.1067 36.3733 42.9334 37.6 42.24C38.8267 41.52 40.2133 41.4667 41.44 41.92C43.8133 39.6 45.3333 36.4267 45.5733 32.88L41.0133 32.8267C40.5867 37.6 36.5867 41.3334 31.68 41.3334ZM31.68 22.6667C36.5867 22.6667 40.5867 26.3734 41.0133 31.1734L45.5733 31.0934C45.3333 27.5734 43.8133 24.4 41.44 22.08C40.2133 22.5334 38.8 22.4534 37.6 21.76C36.3733 21.0667 35.6267 19.8667 35.4133 18.5867C34.2133 18.2667 32.9867 18.08 31.68 18.08C29.4667 18.08 27.3867 18.5867 25.52 19.52L27.76 23.52C28.9333 22.96 30.2667 22.6667 31.68 22.6667ZM22.32 32C22.32 28.8267 23.8933 26.0267 26.2933 24.3467L24 20.4C21.1733 22.2934 19.0667 25.1467 18.2133 28.5067C19.2267 29.3334 19.8667 30.5867 19.8667 32C19.8667 33.4134 19.2267 34.6667 18.2133 35.4934C19.0667 38.8267 21.1733 41.7067 24 43.5734L26.2933 39.6534C23.8933 37.9734 22.32 35.1734 22.32 32ZM38.24 43.36C36.72 44.24 36.1867 46.1867 37.0667 47.7334C37.9467 49.2534 39.92 49.7867 41.44 48.9067C42.9867 48 43.4933 46.0534 42.6667 44.5334C41.7333 42.9867 39.7867 42.48 38.24 43.36ZM15.36 28.8C13.6 28.8 12.16 30.24 12.16 32C12.16 33.76 13.6 35.2 15.36 35.2C17.1467 35.2 18.56 33.76 18.56 32C18.56 30.24 17.1467 28.8 15.36 28.8Z" fill="white"/>
</svg>
