<svg width="55" height="53" viewBox="0 0 55 53" fill="none" xmlns="http://www.w3.org/2000/svg">
<path d="M30.6667 3.00005L33.3333 3.16005C40.8 -0.226613 47.28 -0.626612 50.6667 2.78672C53.3333 5.48005 53.5467 10.1201 51.7867 15.5867C53.6267 19.0001 54.6667 22.8667 54.6667 27.0001L54.5333 29.6667H20.2133C21.2 35.7467 25.4933 40.3334 30.6667 40.3334C34.16 40.3334 37.2533 38.2267 39.2 35.0001H53.3333C50 44.3334 41.12 51.0001 30.6667 51.0001C27.2533 51.0001 24 50.2801 21.0933 49.0001C13.3333 52.8134 6.37334 53.4001 2.85334 49.8267C-1.33333 45.5601 0.480007 36.5201 6.66667 27.0001C9.14667 23.1067 12.3733 19.1601 16.1867 15.4001L18.3467 13.3467C15.2267 15.1867 11.2267 17.9867 7.17334 22.1201C9.41334 11.2134 19.0933 3.00005 30.6667 3.00005ZM30.6667 13.6667C25.8933 13.6667 21.84 17.5867 20.48 23.0001H40.8533C39.4933 17.5867 35.44 13.6667 30.6667 13.6667ZM49.4933 5.82672C47.7333 4.04005 44.5867 3.93339 40.64 5.16005C44.5867 7.00005 48 9.82672 50.4267 13.3734C51.28 10.0667 51.04 7.40005 49.4933 5.82672ZM6.37334 48.3334C8.58667 50.5734 13.0667 50.1734 18.5067 47.6934C13.5733 44.7867 9.78667 40.1734 7.92001 34.6801C4.72001 40.7334 4.00001 45.8534 6.37334 48.3334Z" fill="white"/>
</svg>
