<svg width="38" height="41" viewBox="0 0 38 41" fill="none" xmlns="http://www.w3.org/2000/svg">
<path d="M33.6919 4.23068C32.6996 3.31835 28.6821 0.397277 19.7268 0.357263C19.7268 0.357263 9.17097 -0.282971 4.02509 4.43876C1.16004 7.3038 0.151671 11.4893 0.0476328 16.6912C-0.0564052 21.8851 -0.192456 31.6247 9.19498 34.2657H9.20298L9.19498 38.2911C9.19498 38.2911 9.13896 39.9237 10.2113 40.2519C11.5078 40.652 12.2761 39.4115 13.5166 38.0751C14.1968 37.3388 15.1331 36.2664 15.8454 35.4421C22.2638 35.9783 27.2016 34.7458 27.7618 34.5618C29.0582 34.1376 36.3969 33.2013 37.5894 23.4617C38.8218 13.442 36.9891 7.09573 33.6919 4.23068ZM34.7803 22.7575C33.772 30.8884 27.8258 31.4006 26.7294 31.7527C26.2652 31.9048 21.9276 32.9852 16.4696 32.6251C16.4696 32.6251 12.4042 37.5309 11.1397 38.8033C10.9396 39.0034 10.7075 39.0834 10.5555 39.0434C10.3394 38.9874 10.2754 38.7313 10.2834 38.3552C10.2834 37.811 10.3154 31.6567 10.3154 31.6567C10.3074 31.6567 10.3074 31.6567 10.3154 31.6567C2.36848 29.4559 2.83265 21.1649 2.92068 16.8273C3.00872 12.4897 3.82501 8.9284 6.2499 6.53552C10.5955 2.59808 19.5668 3.1823 19.5668 3.1823C27.1375 3.21431 30.7629 5.49514 31.6032 6.25542C34.3962 8.6563 35.8207 14.3784 34.7803 22.7575Z" fill="white"/>
<path d="M23.4162 16.9794C23.1521 16.9794 22.928 16.7713 22.912 16.4992C22.824 14.7786 22.0157 13.9382 20.3671 13.8502C20.087 13.8342 19.8709 13.5941 19.8869 13.314C19.9029 13.0339 20.143 12.8178 20.4231 12.8338C22.5999 12.9539 23.8164 14.2023 23.9284 16.4432C23.9444 16.7233 23.7283 16.9634 23.4482 16.9714C23.4322 16.9794 23.4242 16.9794 23.4162 16.9794Z" fill="white"/>
<path d="M26.0091 17.8439H26.0011C25.721 17.8358 25.4969 17.6038 25.505 17.3237C25.545 15.595 25.0488 14.1945 23.9924 13.0421C22.944 11.8897 21.4955 11.2654 19.5828 11.1294C19.3027 11.1054 19.0946 10.8653 19.1186 10.5852C19.1426 10.3051 19.3827 10.097 19.6628 10.121C21.8236 10.2811 23.5282 11.0334 24.7447 12.3618C25.9691 13.6983 26.5613 15.3709 26.5213 17.3477C26.5133 17.6278 26.2812 17.8439 26.0091 17.8439Z" fill="white"/>
<path d="M28.6661 18.8839C28.386 18.8839 28.1619 18.6598 28.1619 18.3797C28.1379 15.2826 27.2496 12.9217 25.4409 11.1531C23.6562 9.40844 21.3914 8.52012 18.7264 8.49611C18.4463 8.49611 18.2223 8.26402 18.2223 7.98392C18.2223 7.70382 18.4543 7.47974 18.7264 7.47974C21.6635 7.50375 24.1604 8.48811 26.1372 10.4248C28.1219 12.3615 29.1383 15.0345 29.1703 18.3637C29.1783 18.6518 28.9542 18.8839 28.6661 18.8839C28.6741 18.8839 28.6741 18.8839 28.6661 18.8839Z" fill="white"/>
<path d="M20.4871 23.2456C20.4871 23.2456 21.1994 23.3096 21.5835 22.8375L22.3278 21.9011C22.6879 21.437 23.5602 21.1408 24.4086 21.613C24.8807 21.8771 25.737 22.4053 26.2652 22.7975C26.8334 23.2136 27.9859 24.174 27.9939 24.182C28.5461 24.6461 28.6741 25.3264 28.298 26.0546C28.298 26.0546 28.298 26.0627 28.298 26.0707C27.9138 26.7509 27.3936 27.3911 26.7454 27.9834C26.7374 27.9834 26.7374 27.9914 26.7294 27.9914C26.1932 28.4395 25.665 28.6956 25.1528 28.7516C25.0888 28.7676 25.0168 28.7676 24.9207 28.7676C24.6967 28.7676 24.4726 28.7356 24.2485 28.6636L24.2325 28.6396C23.4322 28.4155 22.1037 27.8553 19.8949 26.6309C18.4544 25.8386 17.2619 25.0303 16.2456 24.222C15.7094 23.7978 15.1652 23.3256 14.605 22.7654C14.589 22.7494 14.565 22.7254 14.5489 22.7094C14.5329 22.6934 14.5089 22.6694 14.4929 22.6534C14.4769 22.6374 14.4529 22.6134 14.4369 22.5974C14.4209 22.5814 14.3969 22.5574 14.3809 22.5414C13.8287 21.9812 13.3485 21.437 12.9244 20.9008C12.1161 19.8924 11.3078 18.692 10.5155 17.2514C9.29103 15.0346 8.73082 13.7061 8.50674 12.9138L8.48273 12.8978C8.4107 12.6738 8.37869 12.4497 8.37869 12.2256C8.37869 12.1296 8.37869 12.0575 8.3947 11.9935C8.45872 11.4733 8.71482 10.9531 9.15498 10.4169C9.15498 10.4089 9.16298 10.4089 9.16298 10.4009C9.7552 9.74468 10.3954 9.23249 11.0757 8.84835C11.0757 8.84835 11.0837 8.84835 11.0917 8.84835C11.8119 8.47222 12.4922 8.60026 12.9644 9.15246C12.9644 9.15246 13.9327 10.3129 14.3489 10.8811C14.741 11.4173 15.2692 12.2656 15.5333 12.7378C16.0055 13.5861 15.7094 14.4584 15.2452 14.8185L14.3089 15.5628C13.8367 15.9469 13.9007 16.6592 13.9007 16.6592C13.9007 16.6592 15.2852 21.9251 20.4871 23.2456Z" fill="white"/>
</svg>
